<svg width="828" height="580" viewBox="0 0 828 580" fill="none" xmlns="http://www.w3.org/2000/svg">
<ellipse cx="583" cy="262" rx="245" ry="262" fill="#2C424F"/>
<path opacity="0.8" d="M593.673 229.077L614.004 207.257L634.336 185.436L645.814 173.119C646.449 172.437 645.469 171.374 644.834 172.055L624.502 193.876L604.17 215.696L592.693 228.014C592.058 228.695 593.038 229.758 593.673 229.077V229.077Z" fill="url(#paint0_linear)"/>
<path opacity="0.8" d="M573.53 105.271L590.761 86.4605L607.991 67.65L617.718 57.0311C618.256 56.4436 617.425 55.527 616.887 56.1145L599.657 74.925L582.427 93.7355L572.7 104.354C572.162 104.942 572.992 105.858 573.53 105.271V105.271Z" fill="url(#paint1_linear)"/>
<path d="M619.765 105.008C621.802 105.008 623.453 103.335 623.453 101.271C623.453 99.2075 621.802 97.5345 619.765 97.5345C617.729 97.5345 616.077 99.2075 616.077 101.271C616.077 103.335 617.729 105.008 619.765 105.008Z" fill="#E6E6E6"/>
<path d="M650.928 205.532L649.087 207.385L647.259 205.52L646.032 206.755L647.86 208.62L646.019 210.473L647.238 211.716L649.079 209.864L650.907 211.729L652.134 210.493L650.306 208.628L652.146 206.776L650.928 205.532Z" fill="#E6E6E6"/>
<path d="M538.419 148.073L536.578 149.925L534.75 148.06L533.523 149.295L535.351 151.16L533.51 153.013L534.729 154.256L536.57 152.404L538.398 154.269L539.625 153.033L537.797 151.168L539.637 149.316L538.419 148.073Z" fill="#E6E6E6"/>
<path d="M591.044 154.017L589.204 155.869L587.375 154.004L586.148 155.239L587.976 157.104L586.136 158.957L587.354 160.2L589.195 158.348L591.023 160.213L592.25 158.978L590.422 157.113L592.262 155.26L591.044 154.017Z" fill="#E6E6E6"/>
<path d="M552.936 74.7615L551.096 76.6143L549.267 74.7486L548.04 75.9838L549.868 77.8489L548.028 79.7017L549.246 80.9448L551.087 79.0927L552.915 80.9577L554.142 79.7225L552.314 77.8574L554.154 76.0053L552.936 74.7615Z" fill="#E6E6E6"/>
<path d="M475.441 331.801L473.428 341.26C473.428 341.26 474.099 363.087 468.729 360.904C463.36 358.722 464.702 339.805 464.702 339.805L469.401 330.346L475.441 331.801Z" fill="#784747"/>
<path d="M445.046 229.296C452.312 229.296 458.202 222.865 458.202 214.931C458.202 206.998 452.312 200.566 445.046 200.566C437.78 200.566 431.889 206.998 431.889 214.931C431.889 222.865 437.78 229.296 445.046 229.296Z" fill="#784747"/>
<path d="M434.203 218.398L432.797 239.048L450.37 241.184C450.37 241.184 450.37 224.095 451.776 221.959C453.182 219.823 434.203 218.398 434.203 218.398Z" fill="#784747"/>
<path d="M471.812 245.692L449.992 235.845C449.992 235.845 439.565 227.267 433.459 233.622L430.718 237.816C430.718 237.816 406.478 247.912 406.484 255.827L415.946 295.393C415.946 295.393 410.576 317.704 418.66 319.135L462.446 323.412C462.446 323.412 468.501 315.491 463.104 305.422L465.106 281.676L471.812 245.692Z" fill="#E6E6E6"/>
<path d="M457.295 246.869L472.242 246.138C472.242 246.138 476.999 247.569 480.408 261.202C483.817 274.835 484.515 297.083 484.515 297.083L476.394 337.281L466.201 335.855L470.246 297.096L463.43 271.265L457.295 246.869Z" fill="#E6E6E6"/>
<path d="M414.272 251.091L407.042 253.522C407.042 253.522 400.946 263.304 400.95 268.328C400.954 273.352 398.318 311.391 398.318 311.391L415.679 342.235L421.001 327.158L410.317 307.791L418.966 284.1L414.272 251.091Z" fill="#E6E6E6"/>
<path d="M464.553 322.046L415.628 317.467C415.628 317.467 410.794 350.273 411.474 363.301C412.155 376.329 412.835 396.594 412.835 396.594L407.391 484.894L428.487 481.999L431.209 408.898L440.055 369.091L450.263 419.755L457.068 484.894L475.441 482.723L469.317 403.832C469.317 403.832 474.761 332.902 464.553 322.046Z" fill="#FF7F76"/>
<path d="M471.448 478.95L477.409 481.118C477.409 481.118 489.993 477.504 486.681 486.901C483.37 496.298 474.097 494.853 474.097 494.853C474.097 494.853 462.838 504.25 458.202 497.021L460.851 481.841L471.448 478.95Z" fill="#2F2E41"/>
<path d="M421.959 478.95L428.106 481.118C428.106 481.118 441.083 477.504 437.668 486.901C434.253 496.298 424.691 494.853 424.691 494.853C424.691 494.853 413.08 504.25 408.299 497.021L411.031 481.841L421.959 478.95Z" fill="#2F2E41"/>
<path d="M434.351 227.315C434.351 227.315 420.317 216.45 427.668 203.413C432.768 194.369 443.335 195.085 449.329 196.372C450.944 196.695 452.462 197.439 453.753 198.539C455.044 199.64 456.068 201.064 456.738 202.689C457.74 205.224 457.74 207.759 453.731 207.759C445.711 207.759 449.721 214.278 449.721 214.278C449.721 214.278 444.375 215.726 445.711 220.796C447.048 225.866 434.351 227.315 434.351 227.315Z" fill="#2F2E41"/>
<path d="M773.064 217.544C775.309 217.544 777.129 215.855 777.129 213.772C777.129 211.689 775.309 210 773.064 210C770.82 210 769 211.689 769 213.772C769 215.855 770.82 217.544 773.064 217.544Z" fill="#E6E6E6"/>
<path d="M711.5 164C735.524 164 755 146.315 755 124.5C755 102.685 735.524 85 711.5 85C687.476 85 668 102.685 668 124.5C668 146.315 687.476 164 711.5 164Z" fill="#FFB076"/>
<path opacity="0.2" d="M707.221 101.836C709.978 101.836 712.213 99.8067 712.213 97.3033C712.213 94.7999 709.978 92.7705 707.221 92.7705C704.464 92.7705 702.229 94.7999 702.229 97.3033C702.229 99.8067 704.464 101.836 707.221 101.836Z" fill="black"/>
<path opacity="0.2" d="M715.779 147.164C718.536 147.164 720.77 145.135 720.77 142.631C720.77 140.128 718.536 138.098 715.779 138.098C713.022 138.098 710.787 140.128 710.787 142.631C710.787 145.135 713.022 147.164 715.779 147.164Z" fill="black"/>
<path opacity="0.2" d="M735.033 120.615C737.002 120.615 738.598 119.165 738.598 117.377C738.598 115.589 737.002 114.139 735.033 114.139C733.064 114.139 731.467 115.589 731.467 117.377C731.467 119.165 733.064 120.615 735.033 120.615Z" fill="black"/>
<path opacity="0.2" d="M694.385 138.098C700.687 138.098 705.795 133.46 705.795 127.738C705.795 122.016 700.687 117.377 694.385 117.377C688.084 117.377 682.975 122.016 682.975 127.738C682.975 133.46 688.084 138.098 694.385 138.098Z" fill="black"/>
<defs>
<linearGradient id="paint0_linear" x1="592.487" y1="200.566" x2="646.019" y2="200.566" gradientUnits="userSpaceOnUse">
<stop stop-color="white"/>
<stop offset="1" stop-color="white" stop-opacity="0.3"/>
</linearGradient>
<linearGradient id="paint1_linear" x1="33497.9" y1="10823.4" x2="37436.1" y2="10823.4" gradientUnits="userSpaceOnUse">
<stop stop-color="white"/>
<stop offset="1" stop-color="white" stop-opacity="0.3"/>
</linearGradient>
</defs>
</svg>
