<svg width="85" height="100" viewBox="0 0 85 100" fill="none" xmlns="http://www.w3.org/2000/svg">
<circle cx="42.5" cy="50.5" r="42.5" fill="#2C424F"/>
<path d="M29.8 68V30.2H35.32V47.3L51.22 30.2H58.06L42.46 46.94L59.26 68H52.3L38.5 50.72L35.32 54.14V68H29.8Z" fill="white"/>
<mask id="mask0" mask-type="alpha" maskUnits="userSpaceOnUse" x="29" y="30" width="31" height="38">
<path d="M29.8 68V30.2H35.32V47.3L51.22 30.2H58.06L42.46 46.94L59.26 68H52.3L38.5 50.72L35.32 54.14V68H29.8Z" fill="white"/>
</mask>
<g mask="url(#mask0)">
<path d="M34.2222 41.7529L31.2222 27.2529C30.7222 26.9195 29.5222 26.6529 28.7222 28.2529V30.7529L29.7222 32.2529L31.2222 36.2529V38.2529V41.7529C31.2222 42.2529 30.9222 44.0529 29.7222 47.2529C28.5222 48.8529 28.5556 49.9195 28.7222 50.2529C28.2222 50.7529 27.2222 52.1529 27.2222 53.7529C27.2222 55.7529 26.7222 56.2529 27.2222 57.7529C27.7222 59.2529 30.2222 59.7529 31.2222 59.7529C32.2222 59.7529 35.2222 60.7529 36.2222 62.2529C37.2222 63.7529 39.2222 65.7529 40.2222 67.7529C41.0222 69.3529 42.8889 72.7529 43.7222 74.2529L52.7222 72.7529L55.2222 67.7529C55.0556 65.7529 54.6222 61.3529 54.2222 59.7529C53.7222 57.7529 48.7222 52.2529 43.7222 50.2529C39.7222 48.6529 38.3889 48.5862 38.2222 48.7529L34.2222 41.7529Z" fill="#FA7311"/>
</g>
</svg>
